<?xml version="1.0" standalone="no"?>
<!DOCTYPE svg PUBLIC "-//W3C//DTD SVG 20010904//EN"
 "http://www.w3.org/TR/2001/REC-SVG-20010904/DTD/svg10.dtd">
<svg version="1.0" xmlns="http://www.w3.org/2000/svg"
 width="512.000000pt" height="512.000000pt" viewBox="0 0 512.000000 512.000000"
 preserveAspectRatio="xMidYMid meet">

<g transform="translate(0.000000,512.000000) scale(0.100000,-0.100000)"
fill="white" stroke="none">
<path d="M2634 4934 c12 -32 36 -187 36 -235 0 -119 -44 -230 -125 -317 -67
-72 -134 -112 -295 -177 -179 -73 -253 -117 -337 -200 -85 -85 -135 -178 -153
-287 -20 -119 0 -203 61 -251 l31 -24 -49 -31 c-99 -65 -279 -218 -310 -265
-60 -90 -54 -174 14 -208 l32 -16 -36 -34 c-54 -51 -65 -86 -57 -178 5 -61 3
-94 -11 -144 -17 -65 -17 -66 5 -112 22 -45 84 -102 140 -126 27 -12 28 -16
34 -108 3 -53 8 -222 12 -376 3 -154 10 -295 16 -312 5 -18 24 -42 41 -54 58
-40 98 -83 124 -133 29 -57 61 -197 158 -681 l68 -340 42 -40 c80 -79 233
-115 485 -115 253 0 404 35 484 114 l43 41 62 315 c137 689 149 727 256 812
33 27 65 60 71 75 7 17 14 148 19 346 4 176 10 350 14 387 l6 67 65 49 c82 63
114 120 114 208 -1 104 -69 218 -193 320 l-59 48 29 41 c121 167 45 398 -180
552 l-68 47 25 26 c111 119 129 474 36 721 -56 147 -184 307 -341 425 -77 58
-289 186 -308 186 -4 0 -4 -7 -1 -16z m288 -349 c53 -52 117 -123 142 -159
149 -208 187 -469 97 -661 -36 -78 -144 -194 -244 -263 -153 -106 -497 -284
-737 -382 -386 -157 -610 -187 -636 -84 -10 39 19 70 142 152 111 76 609 446
618 461 3 4 -48 -19 -112 -51 -217 -110 -320 -89 -315 64 3 111 83 237 194
309 28 18 115 58 195 90 263 106 343 160 432 293 53 79 111 225 115 287 1 22
5 39 8 39 3 0 48 -43 101 -95z m273 -1136 c73 -41 149 -111 182 -166 58 -99
28 -198 -97 -324 -136 -138 -368 -270 -623 -354 -235 -77 -460 -113 -782 -124
l-200 -7 130 -8 c168 -11 493 -1 619 19 335 53 620 159 824 305 46 33 94 60
107 60 33 0 177 -138 206 -196 16 -33 20 -57 17 -89 -15 -133 -177 -204 -568
-251 -478 -57 -1103 -1 -1370 122 -126 58 -147 91 -115 179 10 28 12 61 8 108
-5 62 -4 70 18 93 50 54 134 85 442 163 108 28 255 72 325 98 170 62 489 223
637 322 139 92 159 96 240 50z m-1328 -1224 c210 -61 396 -79 742 -72 260 5
420 21 651 62 47 8 88 15 93 15 11 0 8 -384 -4 -485 -13 -107 -42 -190 -73
-210 -32 -21 -192 -43 -406 -55 -439 -24 -890 0 -1030 56 -76 31 -84 71 -85
442 0 247 2 281 15 276 8 -3 52 -16 97 -29z m237 -850 c72 -9 150 -18 174 -21
l43 -5 -38 -42 c-49 -53 -124 -159 -151 -213 -31 -62 -41 -66 -87 -41 l-39 22
-22 136 c-12 74 -25 145 -28 157 -9 26 -18 26 148 7z m1066 11 c0 -2 -5 -28
-10 -57 -6 -30 -31 -193 -56 -363 -51 -355 -85 -522 -116 -578 -43 -75 -146
-119 -313 -133 -65 -5 -261 8 -272 18 -8 9 164 222 191 236 25 14 32 12 117
-32 99 -52 149 -60 149 -27 0 33 -26 65 -90 109 -59 42 -80 66 -80 94 0 8 29
53 64 100 35 47 86 122 112 167 l49 81 45 -6 c91 -13 115 -12 112 8 -2 10 -19
39 -38 63 -19 25 -34 50 -34 55 0 19 93 194 123 231 26 32 47 48 47 34z m-625
-80 c50 -33 238 -196 250 -216 5 -9 -188 -311 -226 -354 -4 -5 -25 5 -46 21
-21 17 -99 71 -174 120 l-135 89 81 137 c144 241 141 237 172 237 16 0 51 -15
78 -34z m379 -36 c-35 -43 -64 -70 -76 -70 -26 0 -68 23 -139 75 l-59 43 118
7 c64 3 126 7 137 9 80 13 80 12 19 -64z m-756 -481 c92 -36 248 -121 293
-159 32 -26 32 -28 19 -60 -8 -18 -35 -66 -62 -107 -26 -40 -56 -90 -67 -111
-32 -62 -42 -67 -108 -49 -71 21 -109 57 -129 122 -27 91 -70 348 -65 388 2
15 44 6 119 -24z"/>
</g>
</svg>
